<?xml version="1.0" standalone="no"?>
<svg xmlns="http://www.w3.org/2000/svg" version="1.1" width="265" height="265">
	<!-- Created with https://api.qrserver.com (QR Code API, see goQR.me/api for information) -->
	<title>QR Code</title>
	<desc>BEGIN:VCARD
VERSION:2.1
FN:Sarka Sevcikova
N:Sevcikova;Sarka
TEL;HOME;VOICE:00420775047077
EMAIL;HOME;INTERNET:sarka.sevci@gmail.com
END:VCARD
</desc>
	<rect style="fill:rgb(255, 255, 255);fill-opacity:1" x="0" y="0" width="265" height="265" />
	<g id="elements">
		<path style="fill:rgb(23, 42, 141)" d="M 20,20 l 5,0 0,5 -5,0 z M 25,20 l 5,0 0,5 -5,0 z M 30,20 l 5,0 0,5 -5,0 z M 35,20 l 5,0 0,5 -5,0 z M 40,20 l 5,0 0,5 -5,0 z M 45,20 l 5,0 0,5 -5,0 z M 50,20 l 5,0 0,5 -5,0 z M 80,20 l 5,0 0,5 -5,0 z M 100,20 l 5,0 0,5 -5,0 z M 110,20 l 5,0 0,5 -5,0 z M 125,20 l 5,0 0,5 -5,0 z M 130,20 l 5,0 0,5 -5,0 z M 165,20 l 5,0 0,5 -5,0 z M 170,20 l 5,0 0,5 -5,0 z M 175,20 l 5,0 0,5 -5,0 z M 180,20 l 5,0 0,5 -5,0 z M 185,20 l 5,0 0,5 -5,0 z M 200,20 l 5,0 0,5 -5,0 z M 210,20 l 5,0 0,5 -5,0 z M 215,20 l 5,0 0,5 -5,0 z M 220,20 l 5,0 0,5 -5,0 z M 225,20 l 5,0 0,5 -5,0 z M 230,20 l 5,0 0,5 -5,0 z M 235,20 l 5,0 0,5 -5,0 z M 240,20 l 5,0 0,5 -5,0 z M 20,25 l 5,0 0,5 -5,0 z M 50,25 l 5,0 0,5 -5,0 z M 60,25 l 5,0 0,5 -5,0 z M 70,25 l 5,0 0,5 -5,0 z M 75,25 l 5,0 0,5 -5,0 z M 95,25 l 5,0 0,5 -5,0 z M 100,25 l 5,0 0,5 -5,0 z M 110,25 l 5,0 0,5 -5,0 z M 125,25 l 5,0 0,5 -5,0 z M 135,25 l 5,0 0,5 -5,0 z M 140,25 l 5,0 0,5 -5,0 z M 155,25 l 5,0 0,5 -5,0 z M 180,25 l 5,0 0,5 -5,0 z M 185,25 l 5,0 0,5 -5,0 z M 195,25 l 5,0 0,5 -5,0 z M 210,25 l 5,0 0,5 -5,0 z M 240,25 l 5,0 0,5 -5,0 z M 20,30 l 5,0 0,5 -5,0 z M 30,30 l 5,0 0,5 -5,0 z M 35,30 l 5,0 0,5 -5,0 z M 40,30 l 5,0 0,5 -5,0 z M 50,30 l 5,0 0,5 -5,0 z M 80,30 l 5,0 0,5 -5,0 z M 100,30 l 5,0 0,5 -5,0 z M 105,30 l 5,0 0,5 -5,0 z M 110,30 l 5,0 0,5 -5,0 z M 125,30 l 5,0 0,5 -5,0 z M 135,30 l 5,0 0,5 -5,0 z M 150,30 l 5,0 0,5 -5,0 z M 165,30 l 5,0 0,5 -5,0 z M 175,30 l 5,0 0,5 -5,0 z M 195,30 l 5,0 0,5 -5,0 z M 210,30 l 5,0 0,5 -5,0 z M 220,30 l 5,0 0,5 -5,0 z M 225,30 l 5,0 0,5 -5,0 z M 230,30 l 5,0 0,5 -5,0 z M 240,30 l 5,0 0,5 -5,0 z M 20,35 l 5,0 0,5 -5,0 z M 30,35 l 5,0 0,5 -5,0 z M 35,35 l 5,0 0,5 -5,0 z M 40,35 l 5,0 0,5 -5,0 z M 50,35 l 5,0 0,5 -5,0 z M 60,35 l 5,0 0,5 -5,0 z M 70,35 l 5,0 0,5 -5,0 z M 80,35 l 5,0 0,5 -5,0 z M 95,35 l 5,0 0,5 -5,0 z M 100,35 l 5,0 0,5 -5,0 z M 110,35 l 5,0 0,5 -5,0 z M 120,35 l 5,0 0,5 -5,0 z M 145,35 l 5,0 0,5 -5,0 z M 150,35 l 5,0 0,5 -5,0 z M 160,35 l 5,0 0,5 -5,0 z M 170,35 l 5,0 0,5 -5,0 z M 175,35 l 5,0 0,5 -5,0 z M 185,35 l 5,0 0,5 -5,0 z M 195,35 l 5,0 0,5 -5,0 z M 200,35 l 5,0 0,5 -5,0 z M 210,35 l 5,0 0,5 -5,0 z M 220,35 l 5,0 0,5 -5,0 z M 225,35 l 5,0 0,5 -5,0 z M 230,35 l 5,0 0,5 -5,0 z M 240,35 l 5,0 0,5 -5,0 z M 20,40 l 5,0 0,5 -5,0 z M 30,40 l 5,0 0,5 -5,0 z M 35,40 l 5,0 0,5 -5,0 z M 40,40 l 5,0 0,5 -5,0 z M 50,40 l 5,0 0,5 -5,0 z M 65,40 l 5,0 0,5 -5,0 z M 70,40 l 5,0 0,5 -5,0 z M 80,40 l 5,0 0,5 -5,0 z M 85,40 l 5,0 0,5 -5,0 z M 90,40 l 5,0 0,5 -5,0 z M 95,40 l 5,0 0,5 -5,0 z M 110,40 l 5,0 0,5 -5,0 z M 115,40 l 5,0 0,5 -5,0 z M 120,40 l 5,0 0,5 -5,0 z M 125,40 l 5,0 0,5 -5,0 z M 130,40 l 5,0 0,5 -5,0 z M 135,40 l 5,0 0,5 -5,0 z M 140,40 l 5,0 0,5 -5,0 z M 145,40 l 5,0 0,5 -5,0 z M 185,40 l 5,0 0,5 -5,0 z M 190,40 l 5,0 0,5 -5,0 z M 195,40 l 5,0 0,5 -5,0 z M 200,40 l 5,0 0,5 -5,0 z M 210,40 l 5,0 0,5 -5,0 z M 220,40 l 5,0 0,5 -5,0 z M 225,40 l 5,0 0,5 -5,0 z M 230,40 l 5,0 0,5 -5,0 z M 240,40 l 5,0 0,5 -5,0 z M 20,45 l 5,0 0,5 -5,0 z M 50,45 l 5,0 0,5 -5,0 z M 60,45 l 5,0 0,5 -5,0 z M 70,45 l 5,0 0,5 -5,0 z M 75,45 l 5,0 0,5 -5,0 z M 80,45 l 5,0 0,5 -5,0 z M 100,45 l 5,0 0,5 -5,0 z M 120,45 l 5,0 0,5 -5,0 z M 140,45 l 5,0 0,5 -5,0 z M 145,45 l 5,0 0,5 -5,0 z M 155,45 l 5,0 0,5 -5,0 z M 160,45 l 5,0 0,5 -5,0 z M 165,45 l 5,0 0,5 -5,0 z M 170,45 l 5,0 0,5 -5,0 z M 180,45 l 5,0 0,5 -5,0 z M 210,45 l 5,0 0,5 -5,0 z M 240,45 l 5,0 0,5 -5,0 z M 20,50 l 5,0 0,5 -5,0 z M 25,50 l 5,0 0,5 -5,0 z M 30,50 l 5,0 0,5 -5,0 z M 35,50 l 5,0 0,5 -5,0 z M 40,50 l 5,0 0,5 -5,0 z M 45,50 l 5,0 0,5 -5,0 z M 50,50 l 5,0 0,5 -5,0 z M 60,50 l 5,0 0,5 -5,0 z M 70,50 l 5,0 0,5 -5,0 z M 80,50 l 5,0 0,5 -5,0 z M 90,50 l 5,0 0,5 -5,0 z M 100,50 l 5,0 0,5 -5,0 z M 110,50 l 5,0 0,5 -5,0 z M 120,50 l 5,0 0,5 -5,0 z M 130,50 l 5,0 0,5 -5,0 z M 140,50 l 5,0 0,5 -5,0 z M 150,50 l 5,0 0,5 -5,0 z M 160,50 l 5,0 0,5 -5,0 z M 170,50 l 5,0 0,5 -5,0 z M 180,50 l 5,0 0,5 -5,0 z M 190,50 l 5,0 0,5 -5,0 z M 200,50 l 5,0 0,5 -5,0 z M 210,50 l 5,0 0,5 -5,0 z M 215,50 l 5,0 0,5 -5,0 z M 220,50 l 5,0 0,5 -5,0 z M 225,50 l 5,0 0,5 -5,0 z M 230,50 l 5,0 0,5 -5,0 z M 235,50 l 5,0 0,5 -5,0 z M 240,50 l 5,0 0,5 -5,0 z M 65,55 l 5,0 0,5 -5,0 z M 70,55 l 5,0 0,5 -5,0 z M 75,55 l 5,0 0,5 -5,0 z M 85,55 l 5,0 0,5 -5,0 z M 95,55 l 5,0 0,5 -5,0 z M 100,55 l 5,0 0,5 -5,0 z M 110,55 l 5,0 0,5 -5,0 z M 115,55 l 5,0 0,5 -5,0 z M 120,55 l 5,0 0,5 -5,0 z M 140,55 l 5,0 0,5 -5,0 z M 150,55 l 5,0 0,5 -5,0 z M 155,55 l 5,0 0,5 -5,0 z M 160,55 l 5,0 0,5 -5,0 z M 170,55 l 5,0 0,5 -5,0 z M 180,55 l 5,0 0,5 -5,0 z M 185,55 l 5,0 0,5 -5,0 z M 200,55 l 5,0 0,5 -5,0 z M 20,60 l 5,0 0,5 -5,0 z M 25,60 l 5,0 0,5 -5,0 z M 30,60 l 5,0 0,5 -5,0 z M 35,60 l 5,0 0,5 -5,0 z M 40,60 l 5,0 0,5 -5,0 z M 50,60 l 5,0 0,5 -5,0 z M 55,60 l 5,0 0,5 -5,0 z M 60,60 l 5,0 0,5 -5,0 z M 70,60 l 5,0 0,5 -5,0 z M 105,60 l 5,0 0,5 -5,0 z M 110,60 l 5,0 0,5 -5,0 z M 115,60 l 5,0 0,5 -5,0 z M 120,60 l 5,0 0,5 -5,0 z M 125,60 l 5,0 0,5 -5,0 z M 130,60 l 5,0 0,5 -5,0 z M 135,60 l 5,0 0,5 -5,0 z M 140,60 l 5,0 0,5 -5,0 z M 150,60 l 5,0 0,5 -5,0 z M 165,60 l 5,0 0,5 -5,0 z M 170,60 l 5,0 0,5 -5,0 z M 175,60 l 5,0 0,5 -5,0 z M 185,60 l 5,0 0,5 -5,0 z M 195,60 l 5,0 0,5 -5,0 z M 200,60 l 5,0 0,5 -5,0 z M 205,60 l 5,0 0,5 -5,0 z M 215,60 l 5,0 0,5 -5,0 z M 225,60 l 5,0 0,5 -5,0 z M 235,60 l 5,0 0,5 -5,0 z M 30,65 l 5,0 0,5 -5,0 z M 60,65 l 5,0 0,5 -5,0 z M 65,65 l 5,0 0,5 -5,0 z M 75,65 l 5,0 0,5 -5,0 z M 80,65 l 5,0 0,5 -5,0 z M 85,65 l 5,0 0,5 -5,0 z M 95,65 l 5,0 0,5 -5,0 z M 105,65 l 5,0 0,5 -5,0 z M 110,65 l 5,0 0,5 -5,0 z M 120,65 l 5,0 0,5 -5,0 z M 130,65 l 5,0 0,5 -5,0 z M 140,65 l 5,0 0,5 -5,0 z M 145,65 l 5,0 0,5 -5,0 z M 155,65 l 5,0 0,5 -5,0 z M 160,65 l 5,0 0,5 -5,0 z M 170,65 l 5,0 0,5 -5,0 z M 180,65 l 5,0 0,5 -5,0 z M 185,65 l 5,0 0,5 -5,0 z M 200,65 l 5,0 0,5 -5,0 z M 215,65 l 5,0 0,5 -5,0 z M 20,70 l 5,0 0,5 -5,0 z M 25,70 l 5,0 0,5 -5,0 z M 45,70 l 5,0 0,5 -5,0 z M 50,70 l 5,0 0,5 -5,0 z M 85,70 l 5,0 0,5 -5,0 z M 120,70 l 5,0 0,5 -5,0 z M 130,70 l 5,0 0,5 -5,0 z M 205,70 l 5,0 0,5 -5,0 z M 215,70 l 5,0 0,5 -5,0 z M 220,70 l 5,0 0,5 -5,0 z M 225,70 l 5,0 0,5 -5,0 z M 230,70 l 5,0 0,5 -5,0 z M 30,75 l 5,0 0,5 -5,0 z M 35,75 l 5,0 0,5 -5,0 z M 40,75 l 5,0 0,5 -5,0 z M 55,75 l 5,0 0,5 -5,0 z M 60,75 l 5,0 0,5 -5,0 z M 70,75 l 5,0 0,5 -5,0 z M 85,75 l 5,0 0,5 -5,0 z M 95,75 l 5,0 0,5 -5,0 z M 120,75 l 5,0 0,5 -5,0 z M 150,75 l 5,0 0,5 -5,0 z M 175,75 l 5,0 0,5 -5,0 z M 200,75 l 5,0 0,5 -5,0 z M 210,75 l 5,0 0,5 -5,0 z M 235,75 l 5,0 0,5 -5,0 z M 20,80 l 5,0 0,5 -5,0 z M 25,80 l 5,0 0,5 -5,0 z M 35,80 l 5,0 0,5 -5,0 z M 50,80 l 5,0 0,5 -5,0 z M 55,80 l 5,0 0,5 -5,0 z M 65,80 l 5,0 0,5 -5,0 z M 70,80 l 5,0 0,5 -5,0 z M 90,80 l 5,0 0,5 -5,0 z M 100,80 l 5,0 0,5 -5,0 z M 105,80 l 5,0 0,5 -5,0 z M 110,80 l 5,0 0,5 -5,0 z M 120,80 l 5,0 0,5 -5,0 z M 130,80 l 5,0 0,5 -5,0 z M 140,80 l 5,0 0,5 -5,0 z M 155,80 l 5,0 0,5 -5,0 z M 175,80 l 5,0 0,5 -5,0 z M 180,80 l 5,0 0,5 -5,0 z M 185,80 l 5,0 0,5 -5,0 z M 190,80 l 5,0 0,5 -5,0 z M 200,80 l 5,0 0,5 -5,0 z M 215,80 l 5,0 0,5 -5,0 z M 220,80 l 5,0 0,5 -5,0 z M 235,80 l 5,0 0,5 -5,0 z M 30,85 l 5,0 0,5 -5,0 z M 35,85 l 5,0 0,5 -5,0 z M 40,85 l 5,0 0,5 -5,0 z M 60,85 l 5,0 0,5 -5,0 z M 65,85 l 5,0 0,5 -5,0 z M 75,85 l 5,0 0,5 -5,0 z M 95,85 l 5,0 0,5 -5,0 z M 105,85 l 5,0 0,5 -5,0 z M 110,85 l 5,0 0,5 -5,0 z M 115,85 l 5,0 0,5 -5,0 z M 125,85 l 5,0 0,5 -5,0 z M 145,85 l 5,0 0,5 -5,0 z M 155,85 l 5,0 0,5 -5,0 z M 165,85 l 5,0 0,5 -5,0 z M 185,85 l 5,0 0,5 -5,0 z M 190,85 l 5,0 0,5 -5,0 z M 195,85 l 5,0 0,5 -5,0 z M 200,85 l 5,0 0,5 -5,0 z M 205,85 l 5,0 0,5 -5,0 z M 215,85 l 5,0 0,5 -5,0 z M 220,85 l 5,0 0,5 -5,0 z M 225,85 l 5,0 0,5 -5,0 z M 240,85 l 5,0 0,5 -5,0 z M 20,90 l 5,0 0,5 -5,0 z M 25,90 l 5,0 0,5 -5,0 z M 35,90 l 5,0 0,5 -5,0 z M 40,90 l 5,0 0,5 -5,0 z M 50,90 l 5,0 0,5 -5,0 z M 60,90 l 5,0 0,5 -5,0 z M 85,90 l 5,0 0,5 -5,0 z M 90,90 l 5,0 0,5 -5,0 z M 110,90 l 5,0 0,5 -5,0 z M 120,90 l 5,0 0,5 -5,0 z M 125,90 l 5,0 0,5 -5,0 z M 130,90 l 5,0 0,5 -5,0 z M 135,90 l 5,0 0,5 -5,0 z M 140,90 l 5,0 0,5 -5,0 z M 145,90 l 5,0 0,5 -5,0 z M 155,90 l 5,0 0,5 -5,0 z M 165,90 l 5,0 0,5 -5,0 z M 170,90 l 5,0 0,5 -5,0 z M 175,90 l 5,0 0,5 -5,0 z M 180,90 l 5,0 0,5 -5,0 z M 185,90 l 5,0 0,5 -5,0 z M 205,90 l 5,0 0,5 -5,0 z M 210,90 l 5,0 0,5 -5,0 z M 215,90 l 5,0 0,5 -5,0 z M 225,90 l 5,0 0,5 -5,0 z M 230,90 l 5,0 0,5 -5,0 z M 235,90 l 5,0 0,5 -5,0 z M 20,95 l 5,0 0,5 -5,0 z M 35,95 l 5,0 0,5 -5,0 z M 45,95 l 5,0 0,5 -5,0 z M 60,95 l 5,0 0,5 -5,0 z M 65,95 l 5,0 0,5 -5,0 z M 70,95 l 5,0 0,5 -5,0 z M 80,95 l 5,0 0,5 -5,0 z M 90,95 l 5,0 0,5 -5,0 z M 110,95 l 5,0 0,5 -5,0 z M 115,95 l 5,0 0,5 -5,0 z M 125,95 l 5,0 0,5 -5,0 z M 130,95 l 5,0 0,5 -5,0 z M 135,95 l 5,0 0,5 -5,0 z M 140,95 l 5,0 0,5 -5,0 z M 145,95 l 5,0 0,5 -5,0 z M 150,95 l 5,0 0,5 -5,0 z M 160,95 l 5,0 0,5 -5,0 z M 170,95 l 5,0 0,5 -5,0 z M 175,95 l 5,0 0,5 -5,0 z M 180,95 l 5,0 0,5 -5,0 z M 195,95 l 5,0 0,5 -5,0 z M 200,95 l 5,0 0,5 -5,0 z M 205,95 l 5,0 0,5 -5,0 z M 215,95 l 5,0 0,5 -5,0 z M 225,95 l 5,0 0,5 -5,0 z M 235,95 l 5,0 0,5 -5,0 z M 25,100 l 5,0 0,5 -5,0 z M 30,100 l 5,0 0,5 -5,0 z M 40,100 l 5,0 0,5 -5,0 z M 45,100 l 5,0 0,5 -5,0 z M 50,100 l 5,0 0,5 -5,0 z M 55,100 l 5,0 0,5 -5,0 z M 60,100 l 5,0 0,5 -5,0 z M 65,100 l 5,0 0,5 -5,0 z M 70,100 l 5,0 0,5 -5,0 z M 75,100 l 5,0 0,5 -5,0 z M 80,100 l 5,0 0,5 -5,0 z M 85,100 l 5,0 0,5 -5,0 z M 90,100 l 5,0 0,5 -5,0 z M 95,100 l 5,0 0,5 -5,0 z M 110,100 l 5,0 0,5 -5,0 z M 120,100 l 5,0 0,5 -5,0 z M 125,100 l 5,0 0,5 -5,0 z M 130,100 l 5,0 0,5 -5,0 z M 150,100 l 5,0 0,5 -5,0 z M 170,100 l 5,0 0,5 -5,0 z M 175,100 l 5,0 0,5 -5,0 z M 185,100 l 5,0 0,5 -5,0 z M 205,100 l 5,0 0,5 -5,0 z M 210,100 l 5,0 0,5 -5,0 z M 215,100 l 5,0 0,5 -5,0 z M 220,100 l 5,0 0,5 -5,0 z M 235,100 l 5,0 0,5 -5,0 z M 240,100 l 5,0 0,5 -5,0 z M 30,105 l 5,0 0,5 -5,0 z M 35,105 l 5,0 0,5 -5,0 z M 40,105 l 5,0 0,5 -5,0 z M 55,105 l 5,0 0,5 -5,0 z M 65,105 l 5,0 0,5 -5,0 z M 70,105 l 5,0 0,5 -5,0 z M 75,105 l 5,0 0,5 -5,0 z M 100,105 l 5,0 0,5 -5,0 z M 110,105 l 5,0 0,5 -5,0 z M 140,105 l 5,0 0,5 -5,0 z M 160,105 l 5,0 0,5 -5,0 z M 165,105 l 5,0 0,5 -5,0 z M 170,105 l 5,0 0,5 -5,0 z M 175,105 l 5,0 0,5 -5,0 z M 185,105 l 5,0 0,5 -5,0 z M 195,105 l 5,0 0,5 -5,0 z M 205,105 l 5,0 0,5 -5,0 z M 215,105 l 5,0 0,5 -5,0 z M 220,105 l 5,0 0,5 -5,0 z M 20,110 l 5,0 0,5 -5,0 z M 35,110 l 5,0 0,5 -5,0 z M 45,110 l 5,0 0,5 -5,0 z M 50,110 l 5,0 0,5 -5,0 z M 60,110 l 5,0 0,5 -5,0 z M 65,110 l 5,0 0,5 -5,0 z M 90,110 l 5,0 0,5 -5,0 z M 95,110 l 5,0 0,5 -5,0 z M 100,110 l 5,0 0,5 -5,0 z M 105,110 l 5,0 0,5 -5,0 z M 110,110 l 5,0 0,5 -5,0 z M 120,110 l 5,0 0,5 -5,0 z M 125,110 l 5,0 0,5 -5,0 z M 130,110 l 5,0 0,5 -5,0 z M 135,110 l 5,0 0,5 -5,0 z M 140,110 l 5,0 0,5 -5,0 z M 145,110 l 5,0 0,5 -5,0 z M 150,110 l 5,0 0,5 -5,0 z M 160,110 l 5,0 0,5 -5,0 z M 165,110 l 5,0 0,5 -5,0 z M 170,110 l 5,0 0,5 -5,0 z M 185,110 l 5,0 0,5 -5,0 z M 190,110 l 5,0 0,5 -5,0 z M 210,110 l 5,0 0,5 -5,0 z M 215,110 l 5,0 0,5 -5,0 z M 230,110 l 5,0 0,5 -5,0 z M 235,110 l 5,0 0,5 -5,0 z M 240,110 l 5,0 0,5 -5,0 z M 25,115 l 5,0 0,5 -5,0 z M 35,115 l 5,0 0,5 -5,0 z M 55,115 l 5,0 0,5 -5,0 z M 60,115 l 5,0 0,5 -5,0 z M 65,115 l 5,0 0,5 -5,0 z M 70,115 l 5,0 0,5 -5,0 z M 75,115 l 5,0 0,5 -5,0 z M 85,115 l 5,0 0,5 -5,0 z M 90,115 l 5,0 0,5 -5,0 z M 100,115 l 5,0 0,5 -5,0 z M 110,115 l 5,0 0,5 -5,0 z M 120,115 l 5,0 0,5 -5,0 z M 135,115 l 5,0 0,5 -5,0 z M 150,115 l 5,0 0,5 -5,0 z M 175,115 l 5,0 0,5 -5,0 z M 185,115 l 5,0 0,5 -5,0 z M 195,115 l 5,0 0,5 -5,0 z M 200,115 l 5,0 0,5 -5,0 z M 205,115 l 5,0 0,5 -5,0 z M 230,115 l 5,0 0,5 -5,0 z M 235,115 l 5,0 0,5 -5,0 z M 20,120 l 5,0 0,5 -5,0 z M 25,120 l 5,0 0,5 -5,0 z M 40,120 l 5,0 0,5 -5,0 z M 45,120 l 5,0 0,5 -5,0 z M 50,120 l 5,0 0,5 -5,0 z M 55,120 l 5,0 0,5 -5,0 z M 60,120 l 5,0 0,5 -5,0 z M 65,120 l 5,0 0,5 -5,0 z M 85,120 l 5,0 0,5 -5,0 z M 95,120 l 5,0 0,5 -5,0 z M 105,120 l 5,0 0,5 -5,0 z M 110,120 l 5,0 0,5 -5,0 z M 115,120 l 5,0 0,5 -5,0 z M 120,120 l 5,0 0,5 -5,0 z M 125,120 l 5,0 0,5 -5,0 z M 130,120 l 5,0 0,5 -5,0 z M 135,120 l 5,0 0,5 -5,0 z M 140,120 l 5,0 0,5 -5,0 z M 150,120 l 5,0 0,5 -5,0 z M 170,120 l 5,0 0,5 -5,0 z M 180,120 l 5,0 0,5 -5,0 z M 190,120 l 5,0 0,5 -5,0 z M 195,120 l 5,0 0,5 -5,0 z M 200,120 l 5,0 0,5 -5,0 z M 205,120 l 5,0 0,5 -5,0 z M 210,120 l 5,0 0,5 -5,0 z M 215,120 l 5,0 0,5 -5,0 z M 220,120 l 5,0 0,5 -5,0 z M 225,120 l 5,0 0,5 -5,0 z M 230,120 l 5,0 0,5 -5,0 z M 235,120 l 5,0 0,5 -5,0 z M 25,125 l 5,0 0,5 -5,0 z M 30,125 l 5,0 0,5 -5,0 z M 40,125 l 5,0 0,5 -5,0 z M 60,125 l 5,0 0,5 -5,0 z M 70,125 l 5,0 0,5 -5,0 z M 75,125 l 5,0 0,5 -5,0 z M 80,125 l 5,0 0,5 -5,0 z M 90,125 l 5,0 0,5 -5,0 z M 110,125 l 5,0 0,5 -5,0 z M 115,125 l 5,0 0,5 -5,0 z M 120,125 l 5,0 0,5 -5,0 z M 140,125 l 5,0 0,5 -5,0 z M 145,125 l 5,0 0,5 -5,0 z M 155,125 l 5,0 0,5 -5,0 z M 160,125 l 5,0 0,5 -5,0 z M 165,125 l 5,0 0,5 -5,0 z M 170,125 l 5,0 0,5 -5,0 z M 175,125 l 5,0 0,5 -5,0 z M 195,125 l 5,0 0,5 -5,0 z M 200,125 l 5,0 0,5 -5,0 z M 220,125 l 5,0 0,5 -5,0 z M 235,125 l 5,0 0,5 -5,0 z M 20,130 l 5,0 0,5 -5,0 z M 25,130 l 5,0 0,5 -5,0 z M 40,130 l 5,0 0,5 -5,0 z M 50,130 l 5,0 0,5 -5,0 z M 60,130 l 5,0 0,5 -5,0 z M 75,130 l 5,0 0,5 -5,0 z M 80,130 l 5,0 0,5 -5,0 z M 105,130 l 5,0 0,5 -5,0 z M 120,130 l 5,0 0,5 -5,0 z M 130,130 l 5,0 0,5 -5,0 z M 140,130 l 5,0 0,5 -5,0 z M 145,130 l 5,0 0,5 -5,0 z M 155,130 l 5,0 0,5 -5,0 z M 160,130 l 5,0 0,5 -5,0 z M 170,130 l 5,0 0,5 -5,0 z M 175,130 l 5,0 0,5 -5,0 z M 185,130 l 5,0 0,5 -5,0 z M 195,130 l 5,0 0,5 -5,0 z M 200,130 l 5,0 0,5 -5,0 z M 210,130 l 5,0 0,5 -5,0 z M 220,130 l 5,0 0,5 -5,0 z M 225,130 l 5,0 0,5 -5,0 z M 240,130 l 5,0 0,5 -5,0 z M 20,135 l 5,0 0,5 -5,0 z M 40,135 l 5,0 0,5 -5,0 z M 60,135 l 5,0 0,5 -5,0 z M 65,135 l 5,0 0,5 -5,0 z M 70,135 l 5,0 0,5 -5,0 z M 75,135 l 5,0 0,5 -5,0 z M 85,135 l 5,0 0,5 -5,0 z M 100,135 l 5,0 0,5 -5,0 z M 115,135 l 5,0 0,5 -5,0 z M 120,135 l 5,0 0,5 -5,0 z M 140,135 l 5,0 0,5 -5,0 z M 150,135 l 5,0 0,5 -5,0 z M 155,135 l 5,0 0,5 -5,0 z M 160,135 l 5,0 0,5 -5,0 z M 170,135 l 5,0 0,5 -5,0 z M 180,135 l 5,0 0,5 -5,0 z M 190,135 l 5,0 0,5 -5,0 z M 200,135 l 5,0 0,5 -5,0 z M 220,135 l 5,0 0,5 -5,0 z M 225,135 l 5,0 0,5 -5,0 z M 235,135 l 5,0 0,5 -5,0 z M 240,135 l 5,0 0,5 -5,0 z M 40,140 l 5,0 0,5 -5,0 z M 45,140 l 5,0 0,5 -5,0 z M 50,140 l 5,0 0,5 -5,0 z M 55,140 l 5,0 0,5 -5,0 z M 60,140 l 5,0 0,5 -5,0 z M 65,140 l 5,0 0,5 -5,0 z M 80,140 l 5,0 0,5 -5,0 z M 105,140 l 5,0 0,5 -5,0 z M 115,140 l 5,0 0,5 -5,0 z M 120,140 l 5,0 0,5 -5,0 z M 125,140 l 5,0 0,5 -5,0 z M 130,140 l 5,0 0,5 -5,0 z M 135,140 l 5,0 0,5 -5,0 z M 140,140 l 5,0 0,5 -5,0 z M 150,140 l 5,0 0,5 -5,0 z M 165,140 l 5,0 0,5 -5,0 z M 175,140 l 5,0 0,5 -5,0 z M 190,140 l 5,0 0,5 -5,0 z M 200,140 l 5,0 0,5 -5,0 z M 205,140 l 5,0 0,5 -5,0 z M 210,140 l 5,0 0,5 -5,0 z M 215,140 l 5,0 0,5 -5,0 z M 220,140 l 5,0 0,5 -5,0 z M 225,140 l 5,0 0,5 -5,0 z M 240,140 l 5,0 0,5 -5,0 z M 20,145 l 5,0 0,5 -5,0 z M 25,145 l 5,0 0,5 -5,0 z M 30,145 l 5,0 0,5 -5,0 z M 35,145 l 5,0 0,5 -5,0 z M 70,145 l 5,0 0,5 -5,0 z M 75,145 l 5,0 0,5 -5,0 z M 85,145 l 5,0 0,5 -5,0 z M 95,145 l 5,0 0,5 -5,0 z M 110,145 l 5,0 0,5 -5,0 z M 115,145 l 5,0 0,5 -5,0 z M 120,145 l 5,0 0,5 -5,0 z M 125,145 l 5,0 0,5 -5,0 z M 130,145 l 5,0 0,5 -5,0 z M 145,145 l 5,0 0,5 -5,0 z M 160,145 l 5,0 0,5 -5,0 z M 165,145 l 5,0 0,5 -5,0 z M 170,145 l 5,0 0,5 -5,0 z M 175,145 l 5,0 0,5 -5,0 z M 180,145 l 5,0 0,5 -5,0 z M 185,145 l 5,0 0,5 -5,0 z M 195,145 l 5,0 0,5 -5,0 z M 200,145 l 5,0 0,5 -5,0 z M 210,145 l 5,0 0,5 -5,0 z M 215,145 l 5,0 0,5 -5,0 z M 220,145 l 5,0 0,5 -5,0 z M 235,145 l 5,0 0,5 -5,0 z M 20,150 l 5,0 0,5 -5,0 z M 30,150 l 5,0 0,5 -5,0 z M 45,150 l 5,0 0,5 -5,0 z M 50,150 l 5,0 0,5 -5,0 z M 60,150 l 5,0 0,5 -5,0 z M 70,150 l 5,0 0,5 -5,0 z M 85,150 l 5,0 0,5 -5,0 z M 105,150 l 5,0 0,5 -5,0 z M 110,150 l 5,0 0,5 -5,0 z M 120,150 l 5,0 0,5 -5,0 z M 125,150 l 5,0 0,5 -5,0 z M 145,150 l 5,0 0,5 -5,0 z M 155,150 l 5,0 0,5 -5,0 z M 160,150 l 5,0 0,5 -5,0 z M 185,150 l 5,0 0,5 -5,0 z M 195,150 l 5,0 0,5 -5,0 z M 200,150 l 5,0 0,5 -5,0 z M 210,150 l 5,0 0,5 -5,0 z M 215,150 l 5,0 0,5 -5,0 z M 220,150 l 5,0 0,5 -5,0 z M 230,150 l 5,0 0,5 -5,0 z M 235,150 l 5,0 0,5 -5,0 z M 240,150 l 5,0 0,5 -5,0 z M 20,155 l 5,0 0,5 -5,0 z M 45,155 l 5,0 0,5 -5,0 z M 55,155 l 5,0 0,5 -5,0 z M 60,155 l 5,0 0,5 -5,0 z M 75,155 l 5,0 0,5 -5,0 z M 90,155 l 5,0 0,5 -5,0 z M 95,155 l 5,0 0,5 -5,0 z M 105,155 l 5,0 0,5 -5,0 z M 110,155 l 5,0 0,5 -5,0 z M 130,155 l 5,0 0,5 -5,0 z M 135,155 l 5,0 0,5 -5,0 z M 140,155 l 5,0 0,5 -5,0 z M 150,155 l 5,0 0,5 -5,0 z M 185,155 l 5,0 0,5 -5,0 z M 190,155 l 5,0 0,5 -5,0 z M 200,155 l 5,0 0,5 -5,0 z M 205,155 l 5,0 0,5 -5,0 z M 215,155 l 5,0 0,5 -5,0 z M 230,155 l 5,0 0,5 -5,0 z M 235,155 l 5,0 0,5 -5,0 z M 240,155 l 5,0 0,5 -5,0 z M 30,160 l 5,0 0,5 -5,0 z M 35,160 l 5,0 0,5 -5,0 z M 40,160 l 5,0 0,5 -5,0 z M 50,160 l 5,0 0,5 -5,0 z M 55,160 l 5,0 0,5 -5,0 z M 70,160 l 5,0 0,5 -5,0 z M 75,160 l 5,0 0,5 -5,0 z M 80,160 l 5,0 0,5 -5,0 z M 85,160 l 5,0 0,5 -5,0 z M 90,160 l 5,0 0,5 -5,0 z M 95,160 l 5,0 0,5 -5,0 z M 105,160 l 5,0 0,5 -5,0 z M 110,160 l 5,0 0,5 -5,0 z M 120,160 l 5,0 0,5 -5,0 z M 135,160 l 5,0 0,5 -5,0 z M 145,160 l 5,0 0,5 -5,0 z M 150,160 l 5,0 0,5 -5,0 z M 160,160 l 5,0 0,5 -5,0 z M 165,160 l 5,0 0,5 -5,0 z M 195,160 l 5,0 0,5 -5,0 z M 200,160 l 5,0 0,5 -5,0 z M 215,160 l 5,0 0,5 -5,0 z M 225,160 l 5,0 0,5 -5,0 z M 230,160 l 5,0 0,5 -5,0 z M 235,160 l 5,0 0,5 -5,0 z M 240,160 l 5,0 0,5 -5,0 z M 25,165 l 5,0 0,5 -5,0 z M 30,165 l 5,0 0,5 -5,0 z M 40,165 l 5,0 0,5 -5,0 z M 45,165 l 5,0 0,5 -5,0 z M 65,165 l 5,0 0,5 -5,0 z M 70,165 l 5,0 0,5 -5,0 z M 80,165 l 5,0 0,5 -5,0 z M 110,165 l 5,0 0,5 -5,0 z M 115,165 l 5,0 0,5 -5,0 z M 140,165 l 5,0 0,5 -5,0 z M 155,165 l 5,0 0,5 -5,0 z M 175,165 l 5,0 0,5 -5,0 z M 190,165 l 5,0 0,5 -5,0 z M 195,165 l 5,0 0,5 -5,0 z M 200,165 l 5,0 0,5 -5,0 z M 235,165 l 5,0 0,5 -5,0 z M 240,165 l 5,0 0,5 -5,0 z M 30,170 l 5,0 0,5 -5,0 z M 35,170 l 5,0 0,5 -5,0 z M 50,170 l 5,0 0,5 -5,0 z M 55,170 l 5,0 0,5 -5,0 z M 60,170 l 5,0 0,5 -5,0 z M 80,170 l 5,0 0,5 -5,0 z M 85,170 l 5,0 0,5 -5,0 z M 90,170 l 5,0 0,5 -5,0 z M 100,170 l 5,0 0,5 -5,0 z M 110,170 l 5,0 0,5 -5,0 z M 120,170 l 5,0 0,5 -5,0 z M 125,170 l 5,0 0,5 -5,0 z M 135,170 l 5,0 0,5 -5,0 z M 140,170 l 5,0 0,5 -5,0 z M 155,170 l 5,0 0,5 -5,0 z M 160,170 l 5,0 0,5 -5,0 z M 165,170 l 5,0 0,5 -5,0 z M 170,170 l 5,0 0,5 -5,0 z M 185,170 l 5,0 0,5 -5,0 z M 190,170 l 5,0 0,5 -5,0 z M 200,170 l 5,0 0,5 -5,0 z M 205,170 l 5,0 0,5 -5,0 z M 215,170 l 5,0 0,5 -5,0 z M 225,170 l 5,0 0,5 -5,0 z M 230,170 l 5,0 0,5 -5,0 z M 240,170 l 5,0 0,5 -5,0 z M 35,175 l 5,0 0,5 -5,0 z M 45,175 l 5,0 0,5 -5,0 z M 55,175 l 5,0 0,5 -5,0 z M 60,175 l 5,0 0,5 -5,0 z M 65,175 l 5,0 0,5 -5,0 z M 70,175 l 5,0 0,5 -5,0 z M 80,175 l 5,0 0,5 -5,0 z M 90,175 l 5,0 0,5 -5,0 z M 100,175 l 5,0 0,5 -5,0 z M 105,175 l 5,0 0,5 -5,0 z M 110,175 l 5,0 0,5 -5,0 z M 115,175 l 5,0 0,5 -5,0 z M 120,175 l 5,0 0,5 -5,0 z M 135,175 l 5,0 0,5 -5,0 z M 155,175 l 5,0 0,5 -5,0 z M 160,175 l 5,0 0,5 -5,0 z M 165,175 l 5,0 0,5 -5,0 z M 170,175 l 5,0 0,5 -5,0 z M 175,175 l 5,0 0,5 -5,0 z M 185,175 l 5,0 0,5 -5,0 z M 190,175 l 5,0 0,5 -5,0 z M 200,175 l 5,0 0,5 -5,0 z M 210,175 l 5,0 0,5 -5,0 z M 215,175 l 5,0 0,5 -5,0 z M 225,175 l 5,0 0,5 -5,0 z M 235,175 l 5,0 0,5 -5,0 z M 240,175 l 5,0 0,5 -5,0 z M 25,180 l 5,0 0,5 -5,0 z M 30,180 l 5,0 0,5 -5,0 z M 50,180 l 5,0 0,5 -5,0 z M 60,180 l 5,0 0,5 -5,0 z M 65,180 l 5,0 0,5 -5,0 z M 75,180 l 5,0 0,5 -5,0 z M 80,180 l 5,0 0,5 -5,0 z M 85,180 l 5,0 0,5 -5,0 z M 90,180 l 5,0 0,5 -5,0 z M 95,180 l 5,0 0,5 -5,0 z M 110,180 l 5,0 0,5 -5,0 z M 115,180 l 5,0 0,5 -5,0 z M 125,180 l 5,0 0,5 -5,0 z M 135,180 l 5,0 0,5 -5,0 z M 145,180 l 5,0 0,5 -5,0 z M 150,180 l 5,0 0,5 -5,0 z M 165,180 l 5,0 0,5 -5,0 z M 170,180 l 5,0 0,5 -5,0 z M 175,180 l 5,0 0,5 -5,0 z M 185,180 l 5,0 0,5 -5,0 z M 190,180 l 5,0 0,5 -5,0 z M 195,180 l 5,0 0,5 -5,0 z M 200,180 l 5,0 0,5 -5,0 z M 215,180 l 5,0 0,5 -5,0 z M 225,180 l 5,0 0,5 -5,0 z M 230,180 l 5,0 0,5 -5,0 z M 235,180 l 5,0 0,5 -5,0 z M 240,180 l 5,0 0,5 -5,0 z M 20,185 l 5,0 0,5 -5,0 z M 25,185 l 5,0 0,5 -5,0 z M 30,185 l 5,0 0,5 -5,0 z M 35,185 l 5,0 0,5 -5,0 z M 55,185 l 5,0 0,5 -5,0 z M 60,185 l 5,0 0,5 -5,0 z M 65,185 l 5,0 0,5 -5,0 z M 70,185 l 5,0 0,5 -5,0 z M 80,185 l 5,0 0,5 -5,0 z M 100,185 l 5,0 0,5 -5,0 z M 105,185 l 5,0 0,5 -5,0 z M 110,185 l 5,0 0,5 -5,0 z M 115,185 l 5,0 0,5 -5,0 z M 120,185 l 5,0 0,5 -5,0 z M 130,185 l 5,0 0,5 -5,0 z M 145,185 l 5,0 0,5 -5,0 z M 165,185 l 5,0 0,5 -5,0 z M 170,185 l 5,0 0,5 -5,0 z M 180,185 l 5,0 0,5 -5,0 z M 195,185 l 5,0 0,5 -5,0 z M 200,185 l 5,0 0,5 -5,0 z M 215,185 l 5,0 0,5 -5,0 z M 220,185 l 5,0 0,5 -5,0 z M 225,185 l 5,0 0,5 -5,0 z M 230,185 l 5,0 0,5 -5,0 z M 235,185 l 5,0 0,5 -5,0 z M 40,190 l 5,0 0,5 -5,0 z M 50,190 l 5,0 0,5 -5,0 z M 55,190 l 5,0 0,5 -5,0 z M 60,190 l 5,0 0,5 -5,0 z M 70,190 l 5,0 0,5 -5,0 z M 75,190 l 5,0 0,5 -5,0 z M 80,190 l 5,0 0,5 -5,0 z M 90,190 l 5,0 0,5 -5,0 z M 95,190 l 5,0 0,5 -5,0 z M 100,190 l 5,0 0,5 -5,0 z M 105,190 l 5,0 0,5 -5,0 z M 120,190 l 5,0 0,5 -5,0 z M 125,190 l 5,0 0,5 -5,0 z M 150,190 l 5,0 0,5 -5,0 z M 155,190 l 5,0 0,5 -5,0 z M 160,190 l 5,0 0,5 -5,0 z M 165,190 l 5,0 0,5 -5,0 z M 180,190 l 5,0 0,5 -5,0 z M 185,190 l 5,0 0,5 -5,0 z M 195,190 l 5,0 0,5 -5,0 z M 200,190 l 5,0 0,5 -5,0 z M 210,190 l 5,0 0,5 -5,0 z M 215,190 l 5,0 0,5 -5,0 z M 220,190 l 5,0 0,5 -5,0 z M 230,190 l 5,0 0,5 -5,0 z M 240,190 l 5,0 0,5 -5,0 z M 25,195 l 5,0 0,5 -5,0 z M 30,195 l 5,0 0,5 -5,0 z M 35,195 l 5,0 0,5 -5,0 z M 40,195 l 5,0 0,5 -5,0 z M 55,195 l 5,0 0,5 -5,0 z M 60,195 l 5,0 0,5 -5,0 z M 80,195 l 5,0 0,5 -5,0 z M 90,195 l 5,0 0,5 -5,0 z M 100,195 l 5,0 0,5 -5,0 z M 110,195 l 5,0 0,5 -5,0 z M 115,195 l 5,0 0,5 -5,0 z M 130,195 l 5,0 0,5 -5,0 z M 135,195 l 5,0 0,5 -5,0 z M 140,195 l 5,0 0,5 -5,0 z M 150,195 l 5,0 0,5 -5,0 z M 165,195 l 5,0 0,5 -5,0 z M 175,195 l 5,0 0,5 -5,0 z M 180,195 l 5,0 0,5 -5,0 z M 205,195 l 5,0 0,5 -5,0 z M 215,195 l 5,0 0,5 -5,0 z M 220,195 l 5,0 0,5 -5,0 z M 235,195 l 5,0 0,5 -5,0 z M 20,200 l 5,0 0,5 -5,0 z M 35,200 l 5,0 0,5 -5,0 z M 40,200 l 5,0 0,5 -5,0 z M 50,200 l 5,0 0,5 -5,0 z M 65,200 l 5,0 0,5 -5,0 z M 70,200 l 5,0 0,5 -5,0 z M 90,200 l 5,0 0,5 -5,0 z M 95,200 l 5,0 0,5 -5,0 z M 110,200 l 5,0 0,5 -5,0 z M 120,200 l 5,0 0,5 -5,0 z M 125,200 l 5,0 0,5 -5,0 z M 130,200 l 5,0 0,5 -5,0 z M 135,200 l 5,0 0,5 -5,0 z M 140,200 l 5,0 0,5 -5,0 z M 145,200 l 5,0 0,5 -5,0 z M 150,200 l 5,0 0,5 -5,0 z M 155,200 l 5,0 0,5 -5,0 z M 160,200 l 5,0 0,5 -5,0 z M 170,200 l 5,0 0,5 -5,0 z M 180,200 l 5,0 0,5 -5,0 z M 185,200 l 5,0 0,5 -5,0 z M 190,200 l 5,0 0,5 -5,0 z M 200,200 l 5,0 0,5 -5,0 z M 205,200 l 5,0 0,5 -5,0 z M 210,200 l 5,0 0,5 -5,0 z M 215,200 l 5,0 0,5 -5,0 z M 220,200 l 5,0 0,5 -5,0 z M 230,200 l 5,0 0,5 -5,0 z M 235,200 l 5,0 0,5 -5,0 z M 60,205 l 5,0 0,5 -5,0 z M 70,205 l 5,0 0,5 -5,0 z M 75,205 l 5,0 0,5 -5,0 z M 105,205 l 5,0 0,5 -5,0 z M 115,205 l 5,0 0,5 -5,0 z M 120,205 l 5,0 0,5 -5,0 z M 140,205 l 5,0 0,5 -5,0 z M 150,205 l 5,0 0,5 -5,0 z M 165,205 l 5,0 0,5 -5,0 z M 175,205 l 5,0 0,5 -5,0 z M 180,205 l 5,0 0,5 -5,0 z M 185,205 l 5,0 0,5 -5,0 z M 190,205 l 5,0 0,5 -5,0 z M 195,205 l 5,0 0,5 -5,0 z M 200,205 l 5,0 0,5 -5,0 z M 220,205 l 5,0 0,5 -5,0 z M 225,205 l 5,0 0,5 -5,0 z M 20,210 l 5,0 0,5 -5,0 z M 25,210 l 5,0 0,5 -5,0 z M 30,210 l 5,0 0,5 -5,0 z M 35,210 l 5,0 0,5 -5,0 z M 40,210 l 5,0 0,5 -5,0 z M 45,210 l 5,0 0,5 -5,0 z M 50,210 l 5,0 0,5 -5,0 z M 60,210 l 5,0 0,5 -5,0 z M 80,210 l 5,0 0,5 -5,0 z M 95,210 l 5,0 0,5 -5,0 z M 105,210 l 5,0 0,5 -5,0 z M 115,210 l 5,0 0,5 -5,0 z M 120,210 l 5,0 0,5 -5,0 z M 130,210 l 5,0 0,5 -5,0 z M 140,210 l 5,0 0,5 -5,0 z M 145,210 l 5,0 0,5 -5,0 z M 160,210 l 5,0 0,5 -5,0 z M 165,210 l 5,0 0,5 -5,0 z M 170,210 l 5,0 0,5 -5,0 z M 190,210 l 5,0 0,5 -5,0 z M 195,210 l 5,0 0,5 -5,0 z M 200,210 l 5,0 0,5 -5,0 z M 210,210 l 5,0 0,5 -5,0 z M 220,210 l 5,0 0,5 -5,0 z M 225,210 l 5,0 0,5 -5,0 z M 230,210 l 5,0 0,5 -5,0 z M 235,210 l 5,0 0,5 -5,0 z M 240,210 l 5,0 0,5 -5,0 z M 20,215 l 5,0 0,5 -5,0 z M 50,215 l 5,0 0,5 -5,0 z M 70,215 l 5,0 0,5 -5,0 z M 80,215 l 5,0 0,5 -5,0 z M 85,215 l 5,0 0,5 -5,0 z M 95,215 l 5,0 0,5 -5,0 z M 100,215 l 5,0 0,5 -5,0 z M 115,215 l 5,0 0,5 -5,0 z M 120,215 l 5,0 0,5 -5,0 z M 140,215 l 5,0 0,5 -5,0 z M 145,215 l 5,0 0,5 -5,0 z M 155,215 l 5,0 0,5 -5,0 z M 160,215 l 5,0 0,5 -5,0 z M 165,215 l 5,0 0,5 -5,0 z M 170,215 l 5,0 0,5 -5,0 z M 175,215 l 5,0 0,5 -5,0 z M 180,215 l 5,0 0,5 -5,0 z M 200,215 l 5,0 0,5 -5,0 z M 220,215 l 5,0 0,5 -5,0 z M 230,215 l 5,0 0,5 -5,0 z M 20,220 l 5,0 0,5 -5,0 z M 30,220 l 5,0 0,5 -5,0 z M 35,220 l 5,0 0,5 -5,0 z M 40,220 l 5,0 0,5 -5,0 z M 50,220 l 5,0 0,5 -5,0 z M 60,220 l 5,0 0,5 -5,0 z M 70,220 l 5,0 0,5 -5,0 z M 80,220 l 5,0 0,5 -5,0 z M 105,220 l 5,0 0,5 -5,0 z M 120,220 l 5,0 0,5 -5,0 z M 125,220 l 5,0 0,5 -5,0 z M 130,220 l 5,0 0,5 -5,0 z M 135,220 l 5,0 0,5 -5,0 z M 140,220 l 5,0 0,5 -5,0 z M 145,220 l 5,0 0,5 -5,0 z M 185,220 l 5,0 0,5 -5,0 z M 190,220 l 5,0 0,5 -5,0 z M 195,220 l 5,0 0,5 -5,0 z M 200,220 l 5,0 0,5 -5,0 z M 205,220 l 5,0 0,5 -5,0 z M 210,220 l 5,0 0,5 -5,0 z M 215,220 l 5,0 0,5 -5,0 z M 220,220 l 5,0 0,5 -5,0 z M 225,220 l 5,0 0,5 -5,0 z M 20,225 l 5,0 0,5 -5,0 z M 30,225 l 5,0 0,5 -5,0 z M 35,225 l 5,0 0,5 -5,0 z M 40,225 l 5,0 0,5 -5,0 z M 50,225 l 5,0 0,5 -5,0 z M 60,225 l 5,0 0,5 -5,0 z M 65,225 l 5,0 0,5 -5,0 z M 70,225 l 5,0 0,5 -5,0 z M 75,225 l 5,0 0,5 -5,0 z M 85,225 l 5,0 0,5 -5,0 z M 95,225 l 5,0 0,5 -5,0 z M 110,225 l 5,0 0,5 -5,0 z M 115,225 l 5,0 0,5 -5,0 z M 125,225 l 5,0 0,5 -5,0 z M 130,225 l 5,0 0,5 -5,0 z M 145,225 l 5,0 0,5 -5,0 z M 160,225 l 5,0 0,5 -5,0 z M 165,225 l 5,0 0,5 -5,0 z M 170,225 l 5,0 0,5 -5,0 z M 180,225 l 5,0 0,5 -5,0 z M 195,225 l 5,0 0,5 -5,0 z M 200,225 l 5,0 0,5 -5,0 z M 205,225 l 5,0 0,5 -5,0 z M 215,225 l 5,0 0,5 -5,0 z M 20,230 l 5,0 0,5 -5,0 z M 30,230 l 5,0 0,5 -5,0 z M 35,230 l 5,0 0,5 -5,0 z M 40,230 l 5,0 0,5 -5,0 z M 50,230 l 5,0 0,5 -5,0 z M 60,230 l 5,0 0,5 -5,0 z M 70,230 l 5,0 0,5 -5,0 z M 90,230 l 5,0 0,5 -5,0 z M 115,230 l 5,0 0,5 -5,0 z M 120,230 l 5,0 0,5 -5,0 z M 125,230 l 5,0 0,5 -5,0 z M 130,230 l 5,0 0,5 -5,0 z M 135,230 l 5,0 0,5 -5,0 z M 140,230 l 5,0 0,5 -5,0 z M 145,230 l 5,0 0,5 -5,0 z M 150,230 l 5,0 0,5 -5,0 z M 155,230 l 5,0 0,5 -5,0 z M 175,230 l 5,0 0,5 -5,0 z M 180,230 l 5,0 0,5 -5,0 z M 185,230 l 5,0 0,5 -5,0 z M 210,230 l 5,0 0,5 -5,0 z M 215,230 l 5,0 0,5 -5,0 z M 20,235 l 5,0 0,5 -5,0 z M 50,235 l 5,0 0,5 -5,0 z M 60,235 l 5,0 0,5 -5,0 z M 65,235 l 5,0 0,5 -5,0 z M 70,235 l 5,0 0,5 -5,0 z M 75,235 l 5,0 0,5 -5,0 z M 95,235 l 5,0 0,5 -5,0 z M 105,235 l 5,0 0,5 -5,0 z M 115,235 l 5,0 0,5 -5,0 z M 125,235 l 5,0 0,5 -5,0 z M 130,235 l 5,0 0,5 -5,0 z M 135,235 l 5,0 0,5 -5,0 z M 140,235 l 5,0 0,5 -5,0 z M 150,235 l 5,0 0,5 -5,0 z M 175,235 l 5,0 0,5 -5,0 z M 185,235 l 5,0 0,5 -5,0 z M 205,235 l 5,0 0,5 -5,0 z M 210,235 l 5,0 0,5 -5,0 z M 240,235 l 5,0 0,5 -5,0 z M 20,240 l 5,0 0,5 -5,0 z M 25,240 l 5,0 0,5 -5,0 z M 30,240 l 5,0 0,5 -5,0 z M 35,240 l 5,0 0,5 -5,0 z M 40,240 l 5,0 0,5 -5,0 z M 45,240 l 5,0 0,5 -5,0 z M 50,240 l 5,0 0,5 -5,0 z M 60,240 l 5,0 0,5 -5,0 z M 80,240 l 5,0 0,5 -5,0 z M 85,240 l 5,0 0,5 -5,0 z M 95,240 l 5,0 0,5 -5,0 z M 105,240 l 5,0 0,5 -5,0 z M 110,240 l 5,0 0,5 -5,0 z M 115,240 l 5,0 0,5 -5,0 z M 130,240 l 5,0 0,5 -5,0 z M 135,240 l 5,0 0,5 -5,0 z M 165,240 l 5,0 0,5 -5,0 z M 170,240 l 5,0 0,5 -5,0 z M 180,240 l 5,0 0,5 -5,0 z M 185,240 l 5,0 0,5 -5,0 z M 190,240 l 5,0 0,5 -5,0 z M 195,240 l 5,0 0,5 -5,0 z M 205,240 l 5,0 0,5 -5,0 z M 225,240 l 5,0 0,5 -5,0 z M 230,240 l 5,0 0,5 -5,0 z " />
	</g>
</svg>
